<svg width="260" height="73" viewBox="0 0 260 73" fill="none" xmlns="http://www.w3.org/2000/svg">
<g clip-path="url(#clip0_13_918)">
<path d="M69.6654 45.1779C69.6654 43.655 70.8293 42.5334 72.4006 42.5334C73.162 42.5334 73.8458 42.7848 74.3065 43.2925L73.9574 43.6405C73.5306 43.2103 73.0117 43.0217 72.4152 43.0217C71.1543 43.0217 70.2086 43.9451 70.2086 45.1779C70.2086 46.4107 71.1543 47.334 72.4152 47.334C73.0117 47.334 73.5354 47.1503 73.9574 46.7104L74.3065 47.0585C73.8458 47.5613 73.1572 47.8223 72.3909 47.8223C70.8245 47.8223 69.6654 46.7007 69.6654 45.1779Z" fill="#0984BA"/>
<path d="M80.6645 47.3001V47.7739H76.9739V42.572H80.5529V43.0458H77.5267V44.8974H80.2231V45.3663H77.5267V47.3001H80.6645Z" fill="#0984BA"/>
<path d="M87.808 42.5769V47.7788H87.3521L84.001 43.5583V47.7788H83.4481V42.5769H83.904L87.2648 46.7974V42.5769H87.808Z" fill="#0984BA"/>
<path d="M92.0126 43.0507H90.1794V42.5769H94.3986V43.0507H92.5655V47.7739H92.0126V43.0507Z" fill="#0984BA"/>
<path d="M100.33 47.7788L99.1367 46.106C99.001 46.1205 98.87 46.1302 98.7197 46.1302H97.3181V47.7788H96.7653V42.5769H98.7197C100.048 42.5769 100.849 43.2441 100.849 44.3608C100.849 45.1778 100.417 45.7483 99.6557 45.9949L100.931 47.7788H100.33ZM100.301 44.3608C100.301 43.5293 99.7478 43.0555 98.7051 43.0555H97.3181V45.6613H98.7051C99.7478 45.6613 100.301 45.1778 100.301 44.3608Z" fill="#0984BA"/>
<path d="M103.186 45.1779C103.186 43.6647 104.35 42.5334 105.926 42.5334C107.502 42.5334 108.662 43.655 108.662 45.1779C108.662 46.7007 107.493 47.8223 105.926 47.8223C104.36 47.8223 103.186 46.6959 103.186 45.1779ZM108.109 45.1779C108.109 43.9354 107.178 43.0217 105.926 43.0217C104.675 43.0217 103.729 43.9354 103.729 45.1779C103.729 46.4203 104.67 47.334 105.926 47.334C107.182 47.334 108.109 46.4203 108.109 45.1779Z" fill="#0984BA"/>
<path d="M114.83 42.5769H116.954C118.623 42.5769 119.748 43.6453 119.748 45.1778C119.748 46.7103 118.623 47.7788 116.954 47.7788H114.83V42.5769ZM116.925 47.3001C118.312 47.3001 119.205 46.4251 119.205 45.1778C119.205 43.9305 118.312 43.0555 116.925 43.0555H115.383V47.305H116.925V47.3001Z" fill="#0984BA"/>
<path d="M126.164 47.3001V47.7739H122.473V42.572H126.052V43.0458H123.026V44.8974H125.723V45.3663H123.026V47.3001H126.164Z" fill="#0984BA"/>
<path d="M132.949 43.0506V45.0956H135.645V45.5694H132.949V47.7739H132.396V42.572H135.975V43.0458H132.949V43.0506Z" fill="#0984BA"/>
<path d="M138.075 45.1779C138.075 43.6647 139.239 42.5334 140.815 42.5334C142.391 42.5334 143.55 43.655 143.55 45.1779C143.55 46.7007 142.381 47.8223 140.815 47.8223C139.248 47.8223 138.075 46.6959 138.075 45.1779ZM143.002 45.1779C143.002 43.9354 142.071 43.0217 140.82 43.0217C139.568 43.0217 138.623 43.9354 138.623 45.1779C138.623 46.4203 139.564 47.334 140.82 47.334C142.076 47.334 143.002 46.4203 143.002 45.1779Z" fill="#0984BA"/>
<path d="M149.84 47.7788L148.647 46.106C148.511 46.1205 148.38 46.1302 148.23 46.1302H146.828V47.7788H146.276V42.5769H148.23C149.559 42.5769 150.359 43.2441 150.359 44.3608C150.359 45.1778 149.927 45.7483 149.166 45.9949L150.441 47.7788H149.84ZM149.811 44.3608C149.811 43.5293 149.258 43.0555 148.215 43.0555H146.828V45.6613H148.215C149.258 45.6613 149.811 45.1778 149.811 44.3608Z" fill="#0984BA"/>
<path d="M158.574 42.5769V47.7788H158.046V43.6211L155.994 47.1213H155.732L153.681 43.6453V47.7836H153.152V42.5817H153.608L155.873 46.4348L158.114 42.5817H158.569L158.574 42.5769Z" fill="#0984BA"/>
<path d="M165.039 46.3864H162.134L161.508 47.7739H160.936L163.322 42.572H163.865L166.251 47.7739H165.669L165.044 46.3864H165.039ZM164.835 45.9416L163.584 43.1473L162.333 45.9416H164.835Z" fill="#0984BA"/>
<path d="M168.065 45.1779C168.065 43.655 169.229 42.5334 170.8 42.5334C171.562 42.5334 172.245 42.7848 172.706 43.2925L172.357 43.6405C171.93 43.2103 171.411 43.0217 170.815 43.0217C169.554 43.0217 168.608 43.9451 168.608 45.1779C168.608 46.4107 169.554 47.334 170.815 47.334C171.411 47.334 171.93 47.1503 172.357 46.7104L172.706 47.0585C172.245 47.5613 171.557 47.8223 170.791 47.8223C169.224 47.8223 168.065 46.7007 168.065 45.1779Z" fill="#0984BA"/>
<path d="M175.373 42.5769H175.926V47.7788H175.373V42.5769Z" fill="#0984BA"/>
<path d="M178.652 45.1778C178.652 43.6646 179.816 42.5334 181.392 42.5334C182.968 42.5334 184.127 43.655 184.127 45.1778C184.127 46.7007 182.958 47.8222 181.392 47.8222C179.825 47.8222 178.652 46.6958 178.652 45.1778ZM183.579 45.1778C183.579 43.9354 182.648 43.0217 181.397 43.0217C180.146 43.0217 179.2 43.9354 179.2 45.1778C179.2 46.4203 180.141 47.334 181.397 47.334C182.653 47.334 183.579 46.4203 183.579 45.1778ZM181.93 41.2329H182.638L181.431 42.1563H180.907L181.925 41.2329H181.93Z" fill="#0984BA"/>
<path d="M191.217 42.5769V47.7788H190.761L187.406 43.5583V47.7788H186.853V42.5769H187.309L190.669 46.7974V42.5769H191.213H191.217Z" fill="#0984BA"/>
<path d="M73.8167 56.2149V56.6887H70.1261V51.4868H73.7051V51.9606H70.679V53.8122H73.3754V54.2811H70.679V56.2149H73.8167Z" fill="#0984BA"/>
<path d="M80.0437 51.4917H80.5966V56.6936H80.0437V51.4917Z" fill="#0984BA"/>
<path d="M88.1474 51.4917V56.6936H87.6916L84.3405 52.4731V56.6936H83.7876V51.4917H84.2435L87.6043 55.7122V51.4917H88.1474Z" fill="#0984BA"/>
<path d="M95.6936 51.4917V56.6936H95.2377L91.8866 52.4731V56.6936H91.3337V51.4917H91.7896L95.1504 55.7122V51.4917H95.6936Z" fill="#0984BA"/>
<path d="M98.424 54.0924C98.424 52.5793 99.5879 51.448 101.164 51.448C102.74 51.448 103.899 52.5696 103.899 54.0924C103.899 55.6153 102.73 56.7369 101.164 56.7369C99.5976 56.7369 98.424 55.6104 98.424 54.0924ZM103.346 54.0924C103.346 52.85 102.415 51.9363 101.164 51.9363C99.9128 51.9363 98.9671 52.85 98.9671 54.0924C98.9671 55.3349 99.908 56.2486 101.164 56.2486C102.42 56.2486 103.346 55.3349 103.346 54.0924Z" fill="#0984BA"/>
<path d="M110.805 51.4917L108.497 56.6936H107.953L105.645 51.4917H106.242L108.24 56.0071L110.252 51.4917H110.81H110.805Z" fill="#0984BA"/>
<path d="M116.164 55.3012H113.259L112.633 56.6887H112.061L114.447 51.4868H114.99L117.376 56.6887H116.794L116.169 55.3012H116.164ZM115.965 54.8564L114.714 52.0621L113.463 54.8564H115.965Z" fill="#0984BA"/>
<path d="M119.19 54.0924C119.19 52.5696 120.354 51.448 121.925 51.448C122.687 51.448 123.371 51.6994 123.831 52.207L123.482 52.5551C123.055 52.1248 122.536 51.9363 121.94 51.9363C120.679 51.9363 119.733 52.8597 119.733 54.0924C119.733 55.3252 120.679 56.2486 121.94 56.2486C122.536 56.2486 123.06 56.0649 123.482 55.625L123.831 55.973C123.371 56.4758 122.682 56.7369 121.916 56.7369C120.349 56.7369 119.19 55.6153 119.19 54.0924Z" fill="#0984BA"/>
<path d="M126.503 51.4917H127.056V56.6936H126.503V51.4917Z" fill="#0984BA"/>
<path d="M129.782 54.0926C129.782 52.5794 130.946 51.4482 132.522 51.4482C134.098 51.4482 135.257 52.5698 135.257 54.0926C135.257 55.6155 134.088 56.737 132.522 56.737C130.955 56.737 129.782 55.6106 129.782 54.0926ZM134.709 54.0926C134.709 52.8502 133.778 51.9364 132.527 51.9364C131.275 51.9364 130.33 52.8502 130.33 54.0926C130.33 55.3351 131.271 56.2488 132.527 56.2488C133.783 56.2488 134.709 55.3351 134.709 54.0926ZM133.06 50.1477H133.768L132.561 51.0711H132.037L133.06 50.1477Z" fill="#0984BA"/>
<path d="M142.347 51.4917V56.6936H141.891L138.54 52.4731V56.6936H137.987V51.4917H138.443L141.804 55.7122V51.4917H142.347Z" fill="#0984BA"/>
<path d="M152.667 56.2149V56.6887H148.977V51.4868H152.556V51.9606H149.53V53.8122H152.226V54.2811H149.53V56.2149H152.667Z" fill="#0984BA"/>
<path d="M159.811 51.4917V56.6936H159.355L156.004 52.4731V56.6936H155.451V51.4917H155.907L159.268 55.7122V51.4917H159.811Z" fill="#0984BA"/>
<path d="M170.136 56.2149V56.6887H166.445V51.4868H170.024V51.9606H166.998V53.8122H169.694V54.2811H166.998V56.2149H170.136Z" fill="#0984BA"/>
<path d="M172.43 54.0924C172.43 52.5696 173.594 51.448 175.165 51.448C175.926 51.448 176.61 51.6994 177.071 52.207L176.722 52.5551C176.295 52.1248 175.776 51.9363 175.179 51.9363C173.919 51.9363 172.973 52.8597 172.973 54.0924C172.973 55.3252 173.919 56.2486 175.179 56.2486C175.776 56.2486 176.295 56.0649 176.722 55.625L177.071 55.973C176.61 56.4758 175.921 56.7369 175.155 56.7369C173.589 56.7369 172.43 55.6153 172.43 54.0924Z" fill="#0984BA"/>
<path d="M179.166 54.0924C179.166 52.5793 180.33 51.448 181.906 51.448C183.482 51.448 184.641 52.5696 184.641 54.0924C184.641 55.6153 183.472 56.7369 181.906 56.7369C180.34 56.7369 179.166 55.6104 179.166 54.0924ZM184.093 54.0924C184.093 52.85 183.162 51.9363 181.911 51.9363C180.66 51.9363 179.714 52.85 179.714 54.0924C179.714 55.3349 180.655 56.2486 181.911 56.2486C183.167 56.2486 184.093 55.3349 184.093 54.0924Z" fill="#0984BA"/>
<path d="M191.731 51.4917V56.6936H191.276L187.92 52.4731V56.6936H187.367V51.4917H187.823L191.183 55.7122V51.4917H191.727H191.731Z" fill="#0984BA"/>
<path d="M194.457 54.0924C194.457 52.5793 195.621 51.448 197.197 51.448C198.773 51.448 199.932 52.5696 199.932 54.0924C199.932 55.6153 198.763 56.7369 197.197 56.7369C195.631 56.7369 194.457 55.6104 194.457 54.0924ZM199.384 54.0924C199.384 52.85 198.453 51.9363 197.202 51.9363C195.951 51.9363 195.005 52.85 195.005 54.0924C195.005 55.3349 195.946 56.2486 197.202 56.2486C198.458 56.2486 199.384 55.3349 199.384 54.0924Z" fill="#0984BA"/>
<path d="M208.08 51.4917V56.6936H207.551V52.5359L205.504 56.0361H205.242L203.191 52.5601V56.6984H202.662V51.4965H203.118L205.383 55.3496L207.624 51.4965H208.08V51.4917Z" fill="#0984BA"/>
<path d="M212.081 50.1477H212.789L211.581 51.0711H211.057L212.081 50.1477ZM211.271 51.4917H211.823V56.6935H211.271V51.4917Z" fill="#0984BA"/>
<path d="M218.283 55.3012H215.378L214.753 56.6887H214.18L216.566 51.4868H217.11L219.496 56.6887H218.914L218.288 55.3012H218.283ZM218.08 54.8564L216.828 52.0621L215.577 54.8564H218.08Z" fill="#0984BA"/>
<path d="M224.792 56.0602L225.01 55.6348C225.383 55.9974 226.048 56.2681 226.731 56.2681C227.706 56.2681 228.133 55.862 228.133 55.3447C228.133 53.9186 224.922 54.7936 224.922 52.8695C224.922 52.1057 225.519 51.4434 226.843 51.4434C227.43 51.4434 228.041 51.6126 228.458 51.9026L228.274 52.3426C227.827 52.0525 227.304 51.9123 226.843 51.9123C225.888 51.9123 225.466 52.3377 225.466 52.855C225.466 54.2812 228.676 53.4206 228.676 55.3157C228.676 56.0796 228.065 56.7322 226.731 56.7322C225.951 56.7322 225.179 56.4567 224.796 56.0554L224.792 56.0602Z" fill="#0984BA"/>
<path d="M230.897 54.0924C230.897 52.5793 232.061 51.448 233.637 51.448C235.213 51.448 236.372 52.5696 236.372 54.0924C236.372 55.6153 235.204 56.7369 233.637 56.7369C232.071 56.7369 230.897 55.6104 230.897 54.0924ZM235.824 54.0924C235.824 52.85 234.893 51.9363 233.642 51.9363C232.391 51.9363 231.445 52.85 231.445 54.0924C231.445 55.3349 232.386 56.2486 233.642 56.2486C234.898 56.2486 235.824 55.3349 235.824 54.0924Z" fill="#0984BA"/>
<path d="M238.642 54.0924C238.642 52.5696 239.806 51.448 241.377 51.448C242.139 51.448 242.823 51.6994 243.283 52.207L242.934 52.5551C242.507 52.1248 241.988 51.9363 241.392 51.9363C240.131 51.9363 239.185 52.8597 239.185 54.0924C239.185 55.3252 240.131 56.2486 241.392 56.2486C241.988 56.2486 242.507 56.0649 242.934 55.625L243.283 55.973C242.823 56.4758 242.134 56.7369 241.368 56.7369C239.801 56.7369 238.642 55.6153 238.642 54.0924Z" fill="#0984BA"/>
<path d="M245.955 51.4917H246.508V56.6936H245.955V51.4917Z" fill="#0984BA"/>
<path d="M252.963 55.3012H250.058L249.433 56.6887H248.86L251.246 51.4868H251.79L254.176 56.6887H253.594L252.968 55.3012H252.963ZM252.764 54.8564L251.513 52.0621L250.262 54.8564H252.764Z" fill="#0984BA"/>
<path d="M256.528 51.4917H257.081V56.2149H260V56.6887H256.528V51.4868V51.4917Z" fill="#0984BA"/>
<path d="M69.6654 26.1252C69.6654 20.8944 73.6955 17.2202 79.1853 17.2202C82.5316 17.2202 85.1649 18.4385 86.8526 20.6285L83.2154 23.8676C82.2163 22.6009 81.0185 21.8709 79.4811 21.8709C77.0902 21.8709 75.4753 23.5243 75.4753 26.1301C75.4753 28.7358 77.0854 30.3892 79.4811 30.3892C81.0185 30.3892 82.2163 29.6592 83.2154 28.3926L86.8526 31.6268C85.1698 33.8168 82.5316 35.0351 79.1853 35.0351C73.6906 35.0351 69.6654 31.3609 69.6654 26.1301V26.1252Z" fill="#0984BA"/>
<path d="M107.6 30.3118V34.6435H93.39V17.6069H107.279V21.9386H99.0544V23.9352H106.28V28.0735H99.0544V30.3118H107.6Z" fill="#0984BA"/>
<path d="M120.461 21.9435V24.8635H127.59V29.1951H120.461V34.6484H114.699V17.6118H128.589V21.9435H120.461Z" fill="#0984BA"/>
<path d="M135.301 17.6118H141.062V34.6484H135.301V17.6118Z" fill="#0984BA"/>
<path d="M162.934 30.3118V34.6435H148.725V17.6069H162.614V21.9386H154.389V23.9352H161.615V28.0735H154.389V30.3118H162.934Z" fill="#0984BA"/>
<path d="M168.962 33.2802L170.82 29.0936C172.43 30.0411 174.578 30.6503 176.46 30.6503C178.094 30.6503 178.681 30.307 178.681 29.7269C178.681 27.5852 169.234 29.3111 169.234 22.9635C169.234 19.8018 171.896 17.2202 177.192 17.2202C179.486 17.2202 181.857 17.7085 183.637 18.7044L181.906 22.8668C180.223 22.016 178.632 21.6002 177.144 21.6002C175.461 21.6002 174.922 22.0885 174.922 22.6686C174.922 24.7136 184.37 23.0119 184.37 29.287C184.37 32.4003 181.707 35.0303 176.411 35.0303C173.555 35.0303 170.674 34.3245 168.967 33.2802H168.962Z" fill="#0984BA"/>
<path d="M36.615 0C27.3618 0 18.9137 3.42278 12.4685 9.06457L24.2532 20.8123C25.1552 20.1064 26.1203 19.4779 27.1387 18.9268C26.9447 18.163 26.8429 17.3653 26.8429 16.5434C26.8429 11.1627 31.2173 6.79722 36.6198 6.79722C42.0223 6.79722 46.3967 11.1579 46.3967 16.5434C46.3967 17.3653 46.2949 18.163 46.1009 18.9268C47.0805 19.4538 48.0165 20.0629 48.8943 20.7397L60.6838 8.98722C54.2435 3.39378 45.8245 0 36.615 0Z" fill="#0984BA"/>
<path d="M42.7739 16.5482C42.7739 13.1592 40.0145 10.4084 36.6149 10.4084C33.2153 10.4084 30.4558 13.1592 30.4558 16.5482C30.4558 19.9371 33.2153 22.6879 36.6149 22.6879C40.0145 22.6879 42.7739 19.9371 42.7739 16.5482Z" fill="#0984BA"/>
<path d="M0 36.5C0 45.7241 3.43356 54.1456 9.09311 60.5706L20.8778 48.8229C20.1697 47.9237 19.5393 46.9617 18.9864 45.9513C18.2202 46.1447 17.42 46.2462 16.5955 46.2462C11.1979 46.2462 6.81862 41.8855 6.81862 36.5C6.81862 31.1144 11.193 26.7537 16.5955 26.7537C17.42 26.7537 18.2202 26.8553 18.9864 27.0486C19.515 26.0672 20.1261 25.139 20.805 24.264L9.01552 12.5115C3.40446 18.9268 0 27.3145 0 36.5Z" fill="#8EC100"/>
<path d="M17.5896 42.5604C20.9472 42.0171 23.2272 38.8633 22.6822 35.5163C22.1372 32.1692 18.9735 29.8963 15.6159 30.4396C12.2583 30.9829 9.9782 34.1367 10.5232 37.4838C11.0682 40.8308 14.2319 43.1037 17.5896 42.5604Z" fill="#8EC100"/>
<path d="M36.615 73C45.8681 73 54.3162 69.5772 60.7663 63.9354L48.9816 52.1877C48.0796 52.8936 47.1145 53.5269 46.1009 54.0732C46.2949 54.837 46.3967 55.6347 46.3967 56.4566C46.3967 61.8373 42.0223 66.2028 36.6198 66.2028C31.2173 66.2028 26.8429 61.8373 26.8429 56.4566C26.8429 55.6347 26.9447 54.837 27.1387 54.0732C26.1542 53.5462 25.2231 52.9419 24.3453 52.2603L12.5558 64.0128C18.9913 69.6111 27.4054 73.0048 36.6198 73.0048L36.615 73Z" fill="#B74121"/>
<path d="M30.4558 56.4517C30.4558 59.8407 33.2153 62.5915 36.6149 62.5915C40.0145 62.5915 42.7739 59.8407 42.7739 56.4517C42.7739 53.0628 40.0145 50.312 36.6149 50.312C33.2153 50.312 30.4558 53.0628 30.4558 56.4517Z" fill="#B74121"/>
</g>
<defs>
<clipPath id="clip0_13_918">
<rect width="260" height="73" fill="white"/>
</clipPath>
</defs>
</svg>
