<svg width="69" height="78" viewBox="0 0 69 78" fill="none" xmlns="http://www.w3.org/2000/svg">
<path d="M0.626465 13.7125C0.626465 6.47418 6.50761 0.442239 13.8967 0.442239H59.7395C64.2635 0.442239 68.1842 4.363 68.1842 8.88696V52.3169C68.1842 55.7853 66.073 58.6505 63.3587 60.0077V70.4128H64.5651C66.5254 70.4128 68.1842 72.0716 68.1842 74.0319C68.1842 76.1431 66.5254 77.6511 64.5651 77.6511H12.6904C5.90441 77.6511 0.626465 72.3732 0.626465 65.5872C0.626465 65.2856 0.626465 64.8332 0.626465 64.3808V13.7125ZM12.6904 60.7617C9.97598 60.7617 7.8648 63.0236 7.8648 65.5872C7.8648 68.3016 9.97598 70.4128 12.6904 70.4128H56.1203V60.7617H12.6904ZM7.8648 54.5789C9.22198 53.9757 10.8808 53.5233 12.6904 53.5233H59.7395C60.3427 53.5233 60.9459 53.0709 60.9459 52.3169V8.88696C60.9459 8.28376 60.3427 7.68057 59.7395 7.68057H13.8967C10.4284 7.68057 7.8648 10.3949 7.8648 13.7125V54.5789ZM23.5478 17.3317H50.0884C52.0488 17.3317 53.7076 18.9905 53.7076 20.9508C53.7076 23.062 52.0488 24.57 50.0884 24.57H23.5478C21.4367 24.57 19.9287 23.062 19.9287 20.9508C19.9287 18.9905 21.4367 17.3317 23.5478 17.3317ZM23.5478 29.3956H50.0884C52.0488 29.3956 53.7076 31.0543 53.7076 33.0147C53.7076 35.1259 52.0488 36.6339 50.0884 36.6339H23.5478C21.4367 36.6339 19.9287 35.1259 19.9287 33.0147C19.9287 31.0543 21.4367 29.3956 23.5478 29.3956Z" fill="#0984BA"/>
</svg>
