<svg width="98" height="79" viewBox="0 0 98 79" fill="none" xmlns="http://www.w3.org/2000/svg">
<path d="M10.2776 7.68057C8.92039 7.68057 7.8648 8.88696 7.8648 10.0933V68C7.8648 69.3572 8.92039 70.4128 10.2776 70.4128H22.3415V60.7617C22.3415 56.8409 25.5082 53.5233 29.5798 53.5233C33.5006 53.5233 36.8181 56.8409 36.8181 60.7617V70.4128H48.882C50.0884 70.4128 51.2948 69.3572 51.2948 68V67.0952C52.5012 69.8096 54.16 72.2224 56.1203 74.3335C54.4616 76.4447 51.7472 77.6511 48.882 77.6511H10.2776C4.84882 77.6511 0.626465 73.4287 0.626465 68V10.0933C0.626465 4.8154 4.84882 0.442239 10.2776 0.442239H48.882C54.16 0.442239 58.5331 4.8154 58.5331 10.0933V35.5783C55.3663 38.1419 52.9536 41.3087 51.2948 44.9278V10.0933C51.2948 8.88696 50.0884 7.68057 48.882 7.68057H10.2776ZM13.8967 16.1253C13.8967 14.9189 14.9523 13.7125 16.3095 13.7125H23.5478C24.7542 13.7125 25.9606 14.9189 25.9606 16.1253V23.3636C25.9606 24.7208 24.7542 25.7764 23.5478 25.7764H16.3095C14.9523 25.7764 13.8967 24.7208 13.8967 23.3636V16.1253ZM35.6117 13.7125H42.8501C44.0565 13.7125 45.2628 14.9189 45.2628 16.1253V23.3636C45.2628 24.7208 44.0565 25.7764 42.8501 25.7764H35.6117C34.2545 25.7764 33.199 24.7208 33.199 23.3636V16.1253C33.199 14.9189 34.2545 13.7125 35.6117 13.7125ZM13.8967 35.4275C13.8967 34.2211 14.9523 33.0147 16.3095 33.0147H23.5478C24.7542 33.0147 25.9606 34.2211 25.9606 35.4275V42.6658C25.9606 44.023 24.7542 45.0786 23.5478 45.0786H16.3095C14.9523 45.0786 13.8967 44.023 13.8967 42.6658V35.4275ZM35.6117 33.0147H42.8501C44.0565 33.0147 45.2628 34.2211 45.2628 35.4275V42.6658C45.2628 44.023 44.0565 45.0786 42.8501 45.0786H35.6117C34.2545 45.0786 33.199 44.023 33.199 42.6658V35.4275C33.199 34.2211 34.2545 33.0147 35.6117 33.0147ZM97.1376 55.9361C97.1376 63.7776 92.9152 70.8652 86.2801 74.7859C79.4941 78.7067 71.2002 78.7067 64.5651 74.7859C57.7791 70.8652 53.7076 63.7776 53.7076 55.9361C53.7076 48.2454 57.7791 41.1579 64.5651 37.2371C71.2002 33.3163 79.4941 33.3163 86.2801 37.2371C92.9152 41.1579 97.1376 48.2454 97.1376 55.9361ZM85.5261 49.4518C84.6213 48.547 82.9625 48.547 82.0577 49.4518L73.0098 58.6505L68.6366 54.2773C67.7318 53.3725 66.073 53.3725 65.1683 54.2773C64.2635 55.1821 64.2635 56.8409 65.1683 57.7457L71.2002 63.7776C72.105 64.6824 73.7638 64.6824 74.6686 63.7776L85.5261 52.9201C86.4309 52.0154 86.4309 50.3566 85.5261 49.4518Z" fill="#0984BA"/>
</svg>
