<svg width="98" height="78" viewBox="0 0 98 78" fill="none" xmlns="http://www.w3.org/2000/svg">
<path d="M4.24563 0.442239H11.484C16.0079 0.442239 19.9287 4.363 19.9287 8.88696V61.9681C19.9287 62.722 20.3811 63.1744 21.1351 63.1744H31.9926H75.4226H93.5184C95.4788 63.1744 97.1376 64.8332 97.1376 66.7936C97.1376 68.9048 95.4788 70.4128 93.5184 70.4128H82.6609C82.6609 74.4843 79.3433 77.6511 75.4226 77.6511C71.351 77.6511 68.1842 74.4843 68.1842 70.4128H39.2309C39.2309 74.4843 35.9133 77.6511 31.9926 77.6511C27.921 77.6511 24.7542 74.4843 24.7542 70.4128H21.1351C16.4603 70.4128 12.6904 66.6428 12.6904 61.9681V8.88696C12.6904 8.28376 12.0872 7.68057 11.484 7.68057H4.24563C2.13445 7.68057 0.626465 6.17258 0.626465 4.0614C0.626465 2.10102 2.13445 0.442239 4.24563 0.442239ZM36.8181 12.5061V46.285H56.1203V12.5061H36.8181ZM29.5798 12.5061C29.5798 8.58536 32.7466 5.26779 36.8181 5.26779H56.1203C60.0411 5.26779 63.3587 8.58536 63.3587 12.5061V46.285C63.3587 50.3566 60.0411 53.5233 56.1203 53.5233H36.8181C32.7466 53.5233 29.5798 50.3566 29.5798 46.285V12.5061ZM85.0737 12.5061H75.4226V22.1572H85.0737V12.5061ZM75.4226 5.26779H85.0737C88.9944 5.26779 92.312 8.58536 92.312 12.5061V22.1572C92.312 26.2288 88.9944 29.3956 85.0737 29.3956H75.4226C71.351 29.3956 68.1842 26.2288 68.1842 22.1572V12.5061C68.1842 8.58536 71.351 5.26779 75.4226 5.26779ZM75.4226 41.4595V46.285H89.8992V41.4595H75.4226ZM68.1842 41.4595C68.1842 37.5387 71.351 34.2211 75.4226 34.2211H89.8992C93.82 34.2211 97.1376 37.5387 97.1376 41.4595V46.285C97.1376 50.3566 93.82 53.5233 89.8992 53.5233H75.4226C71.351 53.5233 68.1842 50.3566 68.1842 46.285V41.4595Z" fill="#0984BA"/>
</svg>
