<svg width="78" height="68" viewBox="0 0 78 68" fill="none" xmlns="http://www.w3.org/2000/svg">
<path d="M7.86455 3.88696V56.9681C7.86455 59.0792 9.37254 60.5872 11.4837 60.5872H74.2159C76.1763 60.5872 77.8351 62.246 77.8351 64.2064C77.8351 66.3176 76.1763 67.8256 74.2159 67.8256H11.4837C5.45178 67.8256 0.626221 63 0.626221 56.9681V3.88696C0.626221 1.92658 2.13421 0.267793 4.24539 0.267793C6.20577 0.267793 7.86455 1.92658 7.86455 3.88696ZM71.9539 20.9272L51.2945 41.4358C49.9374 42.9438 47.6754 42.9438 46.3182 41.4358L34.4051 29.5227L22.492 41.4358C20.984 42.9438 18.722 42.9438 17.3649 41.4358C15.8569 40.0786 15.8569 37.8166 17.3649 36.4595L31.8415 21.9828C32.4447 21.2288 33.3495 20.9272 34.4051 20.9272C35.3099 20.9272 36.2147 21.2288 36.9687 21.9828L48.8818 33.8959L66.8268 15.9508C68.184 14.4429 70.446 14.4429 71.9539 15.9508C73.3111 17.308 73.3111 19.57 71.9539 20.9272Z" fill="#0984BA"/>
</svg>
