<svg width="98" height="78" viewBox="0 0 98 78" fill="none" xmlns="http://www.w3.org/2000/svg">
<path d="M44.0565 10.0933C44.0565 12.6569 43.0009 15.0697 41.3421 16.7285L45.4136 25.4748C47.2232 24.8716 49.1836 24.57 51.2948 24.57C57.1759 24.57 62.4539 26.9828 66.3746 30.7528L77.9861 22.1572C77.8353 21.4032 77.8353 20.6492 77.8353 19.7445C77.8353 14.4665 82.0577 10.0933 87.4864 10.0933C92.7644 10.0933 97.1376 14.4665 97.1376 19.7445C97.1376 25.1732 92.7644 29.3956 87.4864 29.3956C85.5261 29.3956 83.8673 28.9432 82.3593 28.0384L70.597 36.6339C72.105 39.4991 73.0098 42.8166 73.0098 46.285C73.0098 49.1502 72.4066 51.8646 71.5018 54.2773L81.6053 60.3093C83.2641 59.1029 85.2245 58.3489 87.3356 58.3489C92.7644 58.3489 96.9868 62.722 96.9868 68C96.9868 73.4287 92.7644 77.6511 87.3356 77.6511C82.0577 77.6511 77.6845 73.4287 77.6845 68C77.6845 67.5476 77.8353 67.0952 77.8353 66.492L67.7318 60.4601C63.8111 65.1348 57.7791 68 51.2948 68C40.4373 68 31.5402 60.3093 29.8814 49.9042H19.1747C17.6667 53.5233 14.1983 55.9361 10.2776 55.9361C4.84882 55.9361 0.626465 51.7138 0.626465 46.285C0.626465 41.0071 4.84882 36.6339 10.2776 36.6339C14.1983 36.6339 17.6667 39.1975 19.1747 42.6658H29.8814C30.7862 36.7847 34.1037 31.8083 38.9293 28.4908L34.8577 19.7445C34.7069 19.7445 34.5561 19.7445 34.4053 19.7445C28.9766 19.7445 24.7542 15.5221 24.7542 10.0933C24.7542 4.8154 28.9766 0.442239 34.4053 0.442239C39.6833 0.442239 44.0565 4.8154 44.0565 10.0933ZM51.2948 60.7617C56.4219 60.7617 61.0967 58.0473 63.8111 53.5233C66.3746 49.1502 66.3746 43.5706 63.8111 39.0467C61.0967 34.6735 56.4219 31.8083 51.2948 31.8083C46.0168 31.8083 41.3421 34.6735 38.6277 39.0467C36.0641 43.5706 36.0641 49.1502 38.6277 53.5233C41.3421 58.0473 46.0168 60.7617 51.2948 60.7617Z" fill="#0984BA"/>
</svg>
