<svg width="78" height="78" viewBox="0 0 78 78" fill="none" xmlns="http://www.w3.org/2000/svg">
<path d="M33.5004 23.3636L31.3893 24.7208C23.2461 29.9988 7.86467 42.2134 7.86467 63.1744C7.86467 67.246 11.0314 70.4128 15.103 70.4128H63.3585C67.2793 70.4128 70.5969 67.246 70.5969 63.1744C70.5969 42.2134 55.0646 29.9988 46.9215 24.7208L44.8103 23.3636H33.5004ZM43.7547 16.1253L44.8103 14.6173L49.4851 7.68057H28.8257L33.5004 14.6173L34.7068 16.1253H43.7547ZM23.2461 21.554C24.9049 20.4984 26.2621 19.4429 27.6193 18.6889L23.3969 12.6569L18.873 6.17258C17.365 3.75981 19.0238 0.442239 21.8889 0.442239H56.4218C59.287 0.442239 61.0966 3.75981 59.4378 6.17258L54.9138 12.6569L50.8423 18.6889C52.0487 19.4429 53.4058 20.4984 55.0646 21.554C64.2633 28.4908 77.8352 41.9118 77.8352 63.1744C77.8352 71.1668 71.3509 77.6511 63.3585 77.6511H15.103C7.11068 77.6511 0.626343 71.1668 0.626343 63.1744C0.626343 41.9118 14.0474 28.4908 23.2461 21.554ZM42.2467 33.0147V35.1259C43.3023 35.2767 44.3579 35.5783 45.4135 35.8799C46.9215 36.3323 47.9771 37.9911 47.5247 39.4991C47.0723 41.1579 45.4135 42.0626 43.7547 41.761C42.096 41.3087 40.588 40.8563 39.08 40.8563C37.8736 40.8563 36.6672 41.1579 35.9132 41.6102C35.1592 42.0626 34.8576 42.515 34.8576 43.1182C34.8576 43.269 35.0084 43.5706 35.7624 44.023C36.6672 44.6262 38.0244 45.0786 39.9848 45.6818H40.1356C41.7944 46.1342 43.9055 46.8882 45.7151 47.9438C47.6755 49.1502 49.3343 51.1106 49.3343 54.2773C49.4851 57.4441 47.8263 59.7061 45.7151 61.0633C44.5087 61.6665 43.3023 62.1189 42.096 62.4205V64.3808C42.096 66.0396 40.7388 67.3968 39.08 67.3968C37.4212 67.3968 36.064 66.0396 36.064 64.3808V62.2697C34.556 61.8173 33.1988 61.3649 31.8416 60.9125C31.5401 60.7617 31.2385 60.7617 30.9369 60.6109C29.4289 60.1585 28.5241 58.3489 29.1273 56.8409C29.5797 55.1821 31.2385 54.4281 32.8972 54.8805C33.1988 55.0313 33.6512 55.1821 33.9528 55.3329C36.064 55.9361 37.572 56.5393 39.2308 56.5393C40.588 56.5393 41.7944 56.3885 42.5483 55.7853C43.1515 55.4837 43.4531 55.0313 43.3023 54.2773C43.3023 53.8249 43.3023 53.5233 42.5483 53.0709C41.4928 52.4677 40.1356 52.0154 38.326 51.4122H38.0244C36.3656 50.809 34.2544 50.2058 32.5956 49.301C30.7861 48.0946 28.9765 46.1342 28.9765 43.1182C28.8257 39.9515 30.6353 37.6895 32.7464 36.4831C33.802 35.8799 35.0084 35.4275 36.2148 35.1259V33.0147C36.2148 31.3559 37.572 29.9988 39.2308 29.9988C40.8896 29.9988 42.2467 31.3559 42.2467 33.0147Z" fill="#0984BA"/>
</svg>
