<svg width="58" height="78" viewBox="0 0 58 78" fill="none" xmlns="http://www.w3.org/2000/svg">
<path d="M9.65111 70.4128H48.2555C49.4619 70.4128 50.6683 69.3572 50.6683 68V24.57H38.6044C35.8901 24.57 33.7789 22.4588 33.7789 19.7445V7.68057H9.65111C8.29392 7.68057 7.23833 8.88696 7.23833 10.0933V68C7.23833 69.3572 8.29392 70.4128 9.65111 70.4128ZM0 10.0933C0 4.8154 4.22236 0.442239 9.65111 0.442239H34.5329C37.0964 0.442239 39.5092 1.49783 41.3188 3.30741L55.0415 17.0301C56.8511 18.8397 57.9067 21.2524 57.9067 23.816V68C57.9067 73.4287 53.5335 77.6511 48.2555 77.6511H9.65111C4.22236 77.6511 0 73.4287 0 68V10.0933ZM12.0639 17.3317C12.0639 16.1253 13.1195 14.9189 14.4767 14.9189H26.5405C27.7469 14.9189 28.9533 16.1253 28.9533 17.3317C28.9533 18.6889 27.7469 19.7445 26.5405 19.7445H14.4767C13.1195 19.7445 12.0639 18.6889 12.0639 17.3317ZM12.0639 26.9828C12.0639 25.7764 13.1195 24.57 14.4767 24.57H26.5405C27.7469 24.57 28.9533 25.7764 28.9533 26.9828C28.9533 28.34 27.7469 29.3956 26.5405 29.3956H14.4767C13.1195 29.3956 12.0639 28.34 12.0639 26.9828ZM28.9533 60.7617C28.9533 59.5553 30.0089 58.3489 31.3661 58.3489H43.43C44.6364 58.3489 45.8428 59.5553 45.8428 60.7617C45.8428 62.1189 44.6364 63.1744 43.43 63.1744H31.3661C30.0089 63.1744 28.9533 62.1189 28.9533 60.7617ZM16.8894 34.2211H41.0172C43.5808 34.2211 45.8428 36.4831 45.8428 39.0467V48.6978C45.8428 51.4122 43.5808 53.5233 41.0172 53.5233H16.8894C14.1751 53.5233 12.0639 51.4122 12.0639 48.6978V39.0467C12.0639 36.4831 14.1751 34.2211 16.8894 34.2211Z" fill="#0984BA"/>
</svg>
