<svg width="59" height="78" viewBox="0 0 59 78" fill="none" xmlns="http://www.w3.org/2000/svg">
<path d="M48.882 70.4128C50.0884 70.4128 51.2948 69.3572 51.2948 68V24.57H39.2309C36.5165 24.57 34.4053 22.4588 34.4053 19.7445V7.68057H10.2776C8.92039 7.68057 7.8648 8.88696 7.8648 10.0933V68C7.8648 69.3572 8.92039 70.4128 10.2776 70.4128H48.882ZM0.626465 10.0933C0.626465 4.8154 4.84882 0.442239 10.2776 0.442239H35.1593C37.7229 0.442239 40.1357 1.49783 41.9453 3.30741L55.6679 17.0301C57.4775 18.8397 58.5331 21.2524 58.5331 23.816V68C58.5331 73.4287 54.16 77.6511 48.882 77.6511H10.2776C4.84882 77.6511 0.626465 73.4287 0.626465 68V10.0933Z" fill="#0984BA"/>
</svg>
