<svg width="59" height="78" viewBox="0 0 59 78" fill="none" xmlns="http://www.w3.org/2000/svg">
<path d="M7.8648 68C7.8648 69.3572 8.92039 70.4128 10.2776 70.4128H48.882C50.0884 70.4128 51.2948 69.3572 51.2948 68V24.57H39.2309C36.5165 24.57 34.4053 22.4588 34.4053 19.7445V7.68057H10.2776C8.92039 7.68057 7.8648 8.88696 7.8648 10.0933V68ZM10.2776 0.442239H35.1593C37.7229 0.442239 40.1357 1.49783 41.9453 3.30741L55.6679 17.0301C57.4775 18.8397 58.5331 21.2524 58.5331 23.816V68C58.5331 73.4287 54.16 77.6511 48.882 77.6511H10.2776C4.84882 77.6511 0.626465 73.4287 0.626465 68V10.0933C0.626465 4.8154 4.84882 0.442239 10.2776 0.442239ZM15.1031 14.9189H27.167C28.3734 14.9189 29.5798 16.1253 29.5798 17.3317C29.5798 18.6889 28.3734 19.7445 27.167 19.7445H15.1031C13.7459 19.7445 12.6904 18.6889 12.6904 17.3317C12.6904 16.1253 13.7459 14.9189 15.1031 14.9189ZM15.1031 24.57H27.167C28.3734 24.57 29.5798 25.7764 29.5798 26.9828C29.5798 28.34 28.3734 29.3956 27.167 29.3956H15.1031C13.7459 29.3956 12.6904 28.34 12.6904 26.9828C12.6904 25.7764 13.7459 24.57 15.1031 24.57ZM23.2463 58.0473C22.3415 61.2141 19.4763 63.1744 16.3095 63.1744H15.1031C13.7459 63.1744 12.6904 62.1189 12.6904 60.7617C12.6904 59.5553 13.7459 58.3489 15.1031 58.3489H16.3095C17.3651 58.3489 18.2699 57.7457 18.5715 56.6901L20.8335 49.301C21.2859 47.4914 22.9447 46.285 24.7542 46.285C26.413 46.285 28.0718 47.4914 28.5242 49.1502L30.183 54.8805C31.2386 53.9757 32.445 53.5233 33.8022 53.5233C35.7625 53.5233 37.5721 54.7297 38.4769 56.5393L39.3817 58.3489H44.0565C45.2628 58.3489 46.4692 59.5553 46.4692 60.7617C46.4692 62.1189 45.2628 63.1744 44.0565 63.1744H38.0245C37.1197 63.1744 36.2149 62.722 35.7625 61.9681L34.2545 58.6505C34.1037 58.4997 33.9529 58.3489 33.8022 58.3489C33.5006 58.3489 33.3498 58.4997 33.199 58.6505L31.691 61.9681C31.2386 62.722 30.3338 63.3252 29.2782 63.1744C28.3734 63.1744 27.4686 62.4205 27.167 61.5157L24.7542 53.0709L23.2463 58.0473Z" fill="#0984BA"/>
</svg>
