<svg width="95" height="79" viewBox="0 0 95 79" fill="none" xmlns="http://www.w3.org/2000/svg">
<path d="M72.0097 2.04543C75.7796 3.40262 77.74 7.62498 76.232 11.2441L72.1605 22.4032L47.8819 25.4192L46.6755 25.2684C47.4295 23.9112 47.8819 22.4032 47.8819 20.7445C47.8819 15.4665 43.5087 11.0933 38.2308 11.0933C32.802 11.0933 28.5797 15.4665 28.5797 20.7445C28.5797 21.6492 28.5797 22.2524 28.7305 23.0064L18.9286 21.8C18.9286 21.4984 18.9286 21.1969 18.9286 20.7445C18.9286 10.1886 27.5241 1.44224 38.2308 1.44224C48.6359 1.44224 57.2314 9.88696 57.533 20.2921L62.8109 6.26779C64.1681 2.49783 68.3905 0.537447 72.0097 2.04543ZM8.37266 27.2288C8.82506 26.324 9.88065 25.7208 10.9362 25.8716L47.8819 30.3956L35.2148 51.3566C34.1592 53.3169 31.8972 54.2217 29.7861 53.6185L5.20589 46.531C2.18992 45.777 0.832731 42.4595 2.18992 39.7451L8.37266 27.2288ZM86.4863 52.7138V63.4205C86.4863 66.738 84.2243 69.6032 80.9068 70.508L50.1439 78.1987C48.6359 78.5003 46.9771 78.5003 45.4691 78.1987L14.7062 70.508C11.5394 69.6032 9.27745 66.738 9.27745 63.4205V52.7138L16.5158 54.8249V63.4205L44.2627 70.3572V48.4914C44.2627 46.531 45.7707 44.8722 47.8819 44.8722C49.8423 44.8722 51.5011 46.531 51.5011 48.4914V70.3572L79.248 63.4205V54.8249L86.4863 52.7138ZM93.4231 39.7451C94.7802 42.4595 93.4231 45.777 90.4071 46.531L65.8269 53.6185C63.7157 54.2217 61.4538 53.3169 60.3982 51.3566L47.8819 30.3956L84.6767 25.8716C85.7323 25.7208 86.7879 26.1732 87.2403 27.2288L93.4231 39.7451Z" fill="#0984BA"/>
</svg>
