<svg width="69" height="68" viewBox="0 0 69 68" fill="none" xmlns="http://www.w3.org/2000/svg">
<path d="M36.818 7.50612H31.9924V60.5872H36.818V7.50612ZM31.9924 0.267793H36.818C40.7388 0.267793 44.0563 3.58536 44.0563 7.50612V60.5872C44.0563 64.6588 40.7388 67.8256 36.818 67.8256H31.9924C27.9209 67.8256 24.7541 64.6588 24.7541 60.5872V7.50612C24.7541 3.58536 27.9209 0.267793 31.9924 0.267793ZM12.6902 36.4595H7.86467V60.5872H12.6902V36.4595ZM7.86467 29.2211H12.6902C16.611 29.2211 19.9286 32.5387 19.9286 36.4595V60.5872C19.9286 64.6588 16.611 67.8256 12.6902 67.8256H7.86467C3.79311 67.8256 0.626343 64.6588 0.626343 60.5872V36.4595C0.626343 32.5387 3.79311 29.2211 7.86467 29.2211ZM56.1202 17.1572V60.5872H60.9458V17.1572H56.1202ZM48.8819 17.1572C48.8819 13.2365 52.0487 9.9189 56.1202 9.9189H60.9458C64.8665 9.9189 68.1841 13.2365 68.1841 17.1572V60.5872C68.1841 64.6588 64.8665 67.8256 60.9458 67.8256H56.1202C52.0487 67.8256 48.8819 64.6588 48.8819 60.5872V17.1572Z" fill="#0984BA"/>
</svg>
