<svg width="97" height="79" viewBox="0 0 97 79" fill="none" xmlns="http://www.w3.org/2000/svg">
<path d="M10.4051 2.04543L17.6434 6.87099C19.3022 8.07738 19.7546 10.3394 18.699 11.9981C17.4926 13.6569 15.2307 14.1093 13.5719 12.9029L6.33354 8.07738C4.67476 7.02179 4.22236 4.75981 5.42875 3.10102C6.48434 1.44224 8.74632 0.989843 10.4051 2.04543ZM90.0267 8.07738L82.7884 12.9029C81.1296 14.1093 78.8677 13.6569 77.8121 11.9981C76.6057 10.3394 77.0581 8.07738 78.7169 6.87099L85.9552 2.04543C87.614 0.989843 89.876 1.44224 91.0823 3.10102C92.1379 4.75981 91.6855 7.02179 90.0267 8.07738ZM3.61917 25.57H13.2703C15.2307 25.57 16.8894 27.2288 16.8894 29.1892C16.8894 31.3004 15.2307 32.8083 13.2703 32.8083H3.61917C1.50799 32.8083 0 31.3004 0 29.1892C0 27.2288 1.50799 25.57 3.61917 25.57ZM83.2408 25.57H92.8919C94.8523 25.57 96.5111 27.2288 96.5111 29.1892C96.5111 31.3004 94.8523 32.8083 92.8919 32.8083H83.2408C81.1296 32.8083 79.6216 31.3004 79.6216 29.1892C79.6216 27.2288 81.1296 25.57 83.2408 25.57ZM17.6434 51.5074L10.4051 56.3329C8.74632 57.5393 6.48434 57.0869 5.42875 55.4281C4.22236 53.7693 4.67476 51.5074 6.33354 50.301L13.5719 45.4754C15.2307 44.4198 17.4926 44.8722 18.699 46.531C19.7546 48.1898 19.3022 50.4518 17.6434 51.5074ZM82.7884 45.6262L90.0267 50.4518C91.6855 51.5074 92.1379 53.7693 91.0823 55.4281C89.876 57.0869 87.614 57.5393 85.9552 56.4837L78.7169 51.6582C77.0581 50.4518 76.6057 48.1898 77.8121 46.531C78.8677 44.8722 81.1296 44.4198 82.7884 45.6262ZM67.5578 27.9828C67.5578 17.4269 58.8114 8.68057 48.2555 8.68057C37.5488 8.68057 28.9533 17.4269 28.9533 27.9828C28.9533 32.2051 30.1597 35.9751 32.2709 38.9911C32.8741 39.8959 33.4773 40.8007 34.2313 41.7055C36.1917 44.4198 38.4536 47.5866 40.2632 50.7534C41.7712 53.6185 42.676 56.6345 42.9776 59.3489H35.7393C35.2869 57.5393 34.8345 55.8805 33.9297 54.2217C32.4217 51.5074 30.6121 48.9438 28.6517 46.3802C27.8977 45.3246 27.1437 44.269 26.3898 43.2134C23.3738 38.8403 21.715 33.7131 21.715 27.9828C21.715 13.3553 33.4773 1.44224 48.2555 1.44224C62.883 1.44224 74.7961 13.3553 74.7961 27.9828C74.7961 33.7131 72.9865 38.8403 69.9705 43.2134C69.2165 44.269 68.4626 45.3246 67.7086 46.3802C65.899 48.9438 63.9386 51.5074 62.4306 54.2217C61.5258 55.8805 61.0734 57.5393 60.7718 59.3489H53.3827C53.8351 56.6345 54.5891 53.6185 56.0971 50.7534C57.9067 47.5866 60.1686 44.4198 62.129 41.7055C62.883 40.8007 63.4862 39.8959 64.0894 38.9911C66.2006 35.9751 67.5578 32.2051 67.5578 27.9828ZM41.0172 27.9828C41.0172 29.34 39.8108 30.3956 38.6044 30.3956C37.2472 30.3956 36.1917 29.34 36.1917 27.9828C36.1917 21.3477 41.4696 15.9189 48.2555 15.9189C49.4619 15.9189 50.6683 17.1253 50.6683 18.3317C50.6683 19.6889 49.4619 20.7445 48.2555 20.7445C44.184 20.7445 41.0172 24.062 41.0172 27.9828ZM60.3194 66.5872C60.3194 73.3732 54.8907 78.6511 48.2555 78.6511C41.4696 78.6511 36.1917 73.3732 36.1917 66.5872V64.1744H60.3194V66.5872Z" fill="#B74121"/>
</svg>
