<svg width="78" height="64" viewBox="0 0 78 64" fill="none" xmlns="http://www.w3.org/2000/svg">
<path d="M4.24563 0.68057H11.484C13.4443 0.68057 15.1031 2.33935 15.1031 4.29974V11.5381C15.1031 13.6492 13.4443 15.1572 11.484 15.1572V28.4275H19.9287C19.9287 26.4671 21.4367 24.8083 23.5478 24.8083H30.7862C32.7466 24.8083 34.4053 26.4671 34.4053 28.4275V35.6658C34.4053 37.777 32.7466 39.285 30.7862 39.285H23.5478C21.4367 39.285 19.9287 37.777 19.9287 35.6658H11.484V51.3489C11.484 52.1029 11.9364 52.5553 12.6904 52.5553H19.9287C19.9287 50.5949 21.4367 48.9361 23.5478 48.9361H30.7862C32.7466 48.9361 34.4053 50.5949 34.4053 52.5553V59.7936C34.4053 61.9048 32.7466 63.4128 30.7862 63.4128H23.5478C21.4367 63.4128 19.9287 61.9048 19.9287 59.7936H12.6904C8.01559 59.7936 4.24563 56.0236 4.24563 51.3489V32.0467V15.1572C2.13445 15.1572 0.626465 13.6492 0.626465 11.5381V4.29974C0.626465 2.33935 2.13445 0.68057 4.24563 0.68057ZM24.7542 7.9189C24.7542 5.95852 26.2622 4.29974 28.3734 4.29974H74.2162C76.1766 4.29974 77.8353 5.95852 77.8353 7.9189C77.8353 10.0301 76.1766 11.5381 74.2162 11.5381H28.3734C26.2622 11.5381 24.7542 10.0301 24.7542 7.9189ZM44.0565 32.0467C44.0565 30.0863 45.5644 28.4275 47.6756 28.4275H74.2162C76.1766 28.4275 77.8353 30.0863 77.8353 32.0467C77.8353 34.1579 76.1766 35.6658 74.2162 35.6658H47.6756C45.5644 35.6658 44.0565 34.1579 44.0565 32.0467ZM44.0565 56.1744C44.0565 54.2141 45.5644 52.5553 47.6756 52.5553H74.2162C76.1766 52.5553 77.8353 54.2141 77.8353 56.1744C77.8353 58.2856 76.1766 59.7936 74.2162 59.7936H47.6756C45.5644 59.7936 44.0565 58.2856 44.0565 56.1744Z" fill="#0984BA"/>
</svg>
