<svg width="77" height="68" viewBox="0 0 77 68" fill="none" xmlns="http://www.w3.org/2000/svg">
<path d="M3.24563 3.88696C3.24563 1.92658 4.75362 0.267793 6.8648 0.267793H11.6904C13.6507 0.267793 15.3095 1.92658 15.3095 3.88696V21.9828H17.7223C19.6827 21.9828 21.3415 23.6416 21.3415 25.602C21.3415 27.7131 19.6827 29.2211 17.7223 29.2211H5.65841C3.54723 29.2211 2.03924 27.7131 2.03924 25.602C2.03924 23.6416 3.54723 21.9828 5.65841 21.9828H8.07118V7.50612H6.8648C4.75362 7.50612 3.24563 5.99814 3.24563 3.88696ZM12.5951 47.0154C11.6904 45.809 9.88077 45.9598 8.97598 47.1661L7.31719 49.4281C6.1108 51.0869 3.84882 51.5393 2.34084 50.3329C0.682055 49.1265 0.229659 46.8646 1.43605 45.2058L3.09483 42.9438C6.714 37.9674 13.9523 37.515 18.0239 42.1898C21.3415 45.809 21.1907 51.3885 17.8731 55.0077L12.5951 60.5872H17.7223C19.6827 60.5872 21.3415 62.246 21.3415 64.2064C21.3415 66.3176 19.6827 67.8256 17.7223 67.8256H4.45202C2.94403 67.8256 1.58685 67.0716 1.13445 65.7144C0.531256 64.3572 0.682055 62.8492 1.73764 61.7936L12.5951 50.0313C13.3491 49.1265 13.3491 47.9201 12.5951 47.0154ZM32.199 6.29974H73.2162C75.1766 6.29974 76.8353 7.95852 76.8353 9.9189C76.8353 12.0301 75.1766 13.5381 73.2162 13.5381H32.199C30.0878 13.5381 28.5798 12.0301 28.5798 9.9189C28.5798 7.95852 30.0878 6.29974 32.199 6.29974ZM32.199 30.4275H73.2162C75.1766 30.4275 76.8353 32.0863 76.8353 34.0467C76.8353 36.1579 75.1766 37.6658 73.2162 37.6658H32.199C30.0878 37.6658 28.5798 36.1579 28.5798 34.0467C28.5798 32.0863 30.0878 30.4275 32.199 30.4275ZM32.199 54.5553H73.2162C75.1766 54.5553 76.8353 56.2141 76.8353 58.1744C76.8353 60.2856 75.1766 61.7936 73.2162 61.7936H32.199C30.0878 61.7936 28.5798 60.2856 28.5798 58.1744C28.5798 56.2141 30.0878 54.5553 32.199 54.5553Z" fill="#0984BA"/>
</svg>
