<svg width="88" height="68" viewBox="0 0 88 68" fill="none" xmlns="http://www.w3.org/2000/svg">
<path d="M83.867 0.267793C85.8274 0.267793 87.4862 1.92658 87.4862 3.88696V7.50612V60.5872V64.2064C87.4862 66.3176 85.8274 67.8256 83.867 67.8256C81.7559 67.8256 80.2479 66.3176 80.2479 64.2064V63.4524L53.4057 56.0633C52.1993 62.8492 46.1674 67.8256 39.2307 67.8256C31.2383 67.8256 24.754 61.3412 24.754 53.3489C24.754 51.6901 25.0556 50.0313 25.508 48.5233L7.86455 43.6978V44.9042C7.86455 47.0154 6.20577 48.5233 4.24539 48.5233C2.13421 48.5233 0.626221 47.0154 0.626221 44.9042V41.7374V38.8722V29.2211V26.5067V23.1892C0.626221 21.2288 2.13421 19.57 4.24539 19.57C6.20577 19.57 7.86455 21.2288 7.86455 23.1892V24.5464L80.2479 4.79175V3.88696C80.2479 1.92658 81.7559 0.267793 83.867 0.267793ZM80.2479 55.9125V12.3317L7.86455 32.0863V36.1579L80.2479 55.9125ZM31.9923 53.3489C31.9923 57.4205 35.1591 60.5872 39.2307 60.5872C42.8498 60.5872 46.0166 57.8728 46.3182 54.2537L32.5955 50.4837C32.1431 51.3885 31.9923 52.2933 31.9923 53.3489Z" fill="#0984BA"/>
</svg>
