<svg width="88" height="58" viewBox="0 0 88 58" fill="none" xmlns="http://www.w3.org/2000/svg">
<path d="M10.2776 7.33168C8.92039 7.33168 7.8648 8.53807 7.8648 9.74446V48.3489C7.8648 49.7061 8.92039 50.7617 10.2776 50.7617H77.8353C79.0417 50.7617 80.2481 49.7061 80.2481 48.3489V9.74446C80.2481 8.53807 79.0417 7.33168 77.8353 7.33168H10.2776ZM0.626465 9.74446C0.626465 4.46651 4.84882 0.0933475 10.2776 0.0933475H77.8353C83.1133 0.0933475 87.4864 4.46651 87.4864 9.74446V48.3489C87.4864 53.7776 83.1133 58 77.8353 58H10.2776C4.84882 58 0.626465 53.7776 0.626465 48.3489V9.74446ZM42.8501 31.4595H69.3906C71.351 31.4595 73.0098 33.1182 73.0098 35.0786C73.0098 37.1898 71.351 38.6978 69.3906 38.6978H42.8501C40.7389 38.6978 39.2309 37.1898 39.2309 35.0786C39.2309 33.1182 40.7389 31.4595 42.8501 31.4595ZM39.2309 20.602C39.2309 18.6416 40.7389 16.9828 42.8501 16.9828H69.3906C71.351 16.9828 73.0098 18.6416 73.0098 20.602C73.0098 22.7131 71.351 24.2211 69.3906 24.2211H42.8501C40.7389 24.2211 39.2309 22.7131 39.2309 20.602ZM27.7702 13.3636V15.4748C28.8258 15.7764 29.8814 15.9272 30.937 16.2288C32.445 16.6812 33.5006 18.34 33.0482 19.9988C32.5958 21.5067 30.937 22.5623 29.2782 22.1099C27.6194 21.6575 26.1114 21.3559 24.6034 21.3559C23.397 21.2051 22.1907 21.5067 21.4367 22.1099C20.6827 22.4115 20.3811 22.8639 20.3811 23.4671C20.3811 23.7687 20.5319 23.9195 21.2859 24.5227C22.1907 24.9751 23.5478 25.4275 25.5082 26.0307H25.659C27.3178 26.6339 29.429 27.2371 31.2386 28.2927C33.199 29.4991 34.8577 31.6102 34.8577 34.6262C35.0085 37.793 33.3498 40.055 31.2386 41.4122C30.0322 42.0154 28.8258 42.4677 27.6194 42.7693V44.7297C27.6194 46.3885 26.2622 47.7457 24.6034 47.7457C22.9447 47.7457 21.5875 46.3885 21.5875 44.7297V42.6185C20.0795 42.3169 18.5715 41.7138 17.3651 41.2614C17.0635 41.2614 16.7619 41.1106 16.4603 40.9598C14.9523 40.5074 14.0475 38.8486 14.6507 37.1898C15.1031 35.6818 16.7619 34.777 18.4207 35.2294C18.7223 35.3802 19.1747 35.531 19.4763 35.6818C21.5875 36.285 23.0955 36.8882 24.7542 36.8882C26.1114 37.039 27.3178 36.7374 28.0718 36.285C28.675 35.8326 28.9766 35.3802 28.8258 34.6262C28.8258 34.1738 28.8258 33.8722 28.0718 33.4198C27.0162 32.8166 25.659 32.3642 23.8494 31.761H23.5478C21.8891 31.1579 19.7779 30.5547 18.1191 29.6499C16.3095 28.4435 14.4999 26.4831 14.4999 23.4671C14.3491 20.3004 16.1587 18.0384 18.2699 16.832C19.3255 16.2288 20.5319 15.7764 21.7383 15.6256V13.3636C21.7383 11.7048 23.0955 10.3477 24.7542 10.3477C26.413 10.3477 27.7702 11.7048 27.7702 13.3636Z" fill="#0984BA"/>
</svg>
