<svg width="97" height="68" viewBox="0 0 97 68" fill="none" xmlns="http://www.w3.org/2000/svg">
<path d="M79.6216 7.50612H31.3661C31.3661 12.9349 26.9929 17.1572 21.715 17.1572V36.4595C26.9929 36.4595 31.3661 40.8326 31.3661 46.1106H79.6216C79.6216 40.8326 83.844 36.4595 89.2728 36.4595V17.1572C83.844 17.1572 79.6216 12.9349 79.6216 7.50612ZM24.1278 0.267793H86.86C92.1379 0.267793 96.5111 4.64095 96.5111 9.9189V43.6978C96.5111 49.1265 92.1379 53.3489 86.86 53.3489H24.1278C18.699 53.3489 14.4767 49.1265 14.4767 43.6978V9.9189C14.4767 4.64095 18.699 0.267793 24.1278 0.267793ZM67.5578 26.8083C67.5578 31.1815 65.145 35.1023 61.5258 37.3642C57.7559 39.4754 53.0811 39.4754 49.4619 37.3642C45.692 35.1023 43.43 31.1815 43.43 26.8083C43.43 22.586 45.692 18.6652 49.4619 16.4032C53.0811 14.2921 57.7559 14.2921 61.5258 16.4032C65.145 18.6652 67.5578 22.586 67.5578 26.8083ZM7.23833 13.5381V49.7297C7.23833 55.7617 12.0639 60.5872 18.0958 60.5872H78.4153C80.3756 60.5872 82.0344 62.246 82.0344 64.2064C82.0344 66.3176 80.3756 67.8256 78.4153 67.8256H18.0958C7.99232 67.8256 0 59.8332 0 49.7297V13.5381C0 11.5777 1.50799 9.9189 3.61917 9.9189C5.57955 9.9189 7.23833 11.5777 7.23833 13.5381Z" fill="#0984BA"/>
</svg>
