<svg width="98" height="68" viewBox="0 0 98 68" fill="none" xmlns="http://www.w3.org/2000/svg">
<path d="M77.8353 7.33168H10.2776C8.92039 7.33168 7.8648 8.53807 7.8648 9.74446V48.3489C7.8648 49.7061 8.92039 50.7617 10.2776 50.7617H53.1044C52.1996 51.9681 51.5964 53.1744 51.2948 54.5316L50.39 58H10.2776C4.84882 58 0.626465 53.7776 0.626465 48.3489V9.74446C0.626465 4.46651 4.84882 0.0933475 10.2776 0.0933475H77.8353C83.1133 0.0933475 87.4864 4.46651 87.4864 9.74446V19.5464C85.0737 19.848 82.9625 20.9036 81.1529 22.7131L80.2481 23.6179V9.74446C80.2481 8.53807 79.0417 7.33168 77.8353 7.33168ZM39.2309 35.0786C39.2309 33.1182 40.7389 31.4595 42.8501 31.4595H50.0884C52.0488 31.4595 53.7076 33.1182 53.7076 35.0786C53.7076 37.1898 52.0488 38.6978 50.0884 38.6978H42.8501C40.7389 38.6978 39.2309 37.1898 39.2309 35.0786ZM42.8501 16.9828H64.5651C66.5254 16.9828 68.1842 18.6416 68.1842 20.602C68.1842 22.7131 66.5254 24.2211 64.5651 24.2211H42.8501C40.7389 24.2211 39.2309 22.7131 39.2309 20.602C39.2309 18.6416 40.7389 16.9828 42.8501 16.9828ZM24.7542 10.3477C26.413 10.3477 27.7702 11.7048 27.7702 13.3636V15.4748C28.8258 15.7764 29.8814 15.9272 30.937 16.2288C32.445 16.6812 33.5006 18.34 33.0482 19.9988C32.5958 21.5067 30.937 22.5623 29.2782 22.1099C27.6194 21.6575 26.1114 21.3559 24.6034 21.3559C23.397 21.2051 22.1907 21.5067 21.4367 22.1099C20.6827 22.4115 20.3811 22.8639 20.3811 23.4671C20.3811 23.7687 20.5319 23.9195 21.2859 24.5227C22.1907 24.9751 23.5478 25.4275 25.5082 26.0307H25.659C27.3178 26.6339 29.429 27.2371 31.2386 28.2927C33.199 29.4991 34.8577 31.6102 34.8577 34.6262C35.0085 37.793 33.3498 40.055 31.2386 41.4122C30.0322 42.0154 28.8258 42.4677 27.6194 42.7693V44.7297C27.6194 46.3885 26.2622 47.7457 24.6034 47.7457C22.9447 47.7457 21.5875 46.3885 21.5875 44.7297V42.6185C20.0795 42.3169 18.5715 41.7138 17.3651 41.2614C17.0635 41.2614 16.7619 41.1106 16.4603 40.9598C14.9523 40.5074 14.0475 38.8486 14.6507 37.1898C15.1031 35.6818 16.7619 34.777 18.4207 35.2294C18.7223 35.3802 19.1747 35.531 19.4763 35.6818C21.5875 36.285 23.0955 36.8882 24.7542 36.8882C26.1114 37.039 27.3178 36.7374 28.0718 36.285C28.675 35.8326 28.9766 35.3802 28.8258 34.6262C28.8258 34.1738 28.8258 33.8722 28.0718 33.4198C27.0162 32.8166 25.659 32.3642 23.8494 31.761H23.5478C21.8891 31.1579 19.7779 30.5547 18.1191 29.6499C16.3095 28.4435 14.4999 26.4831 14.4999 23.4671C14.3491 20.3004 16.1587 18.0384 18.2699 16.832C19.3255 16.2288 20.5319 15.7764 21.7383 15.6256V13.3636C21.7383 11.7048 23.0955 10.3477 24.7542 10.3477ZM93.066 26.0307L95.328 28.2927C97.5899 30.5547 97.5899 34.3246 95.328 36.7374L90.804 41.2614L80.0973 30.5547L84.6213 26.0307C86.8832 23.7687 90.804 23.7687 93.066 26.0307ZM57.1759 53.3252L76.7797 33.8722L87.4864 44.5789L67.8826 64.0319C67.2794 64.6351 66.5254 65.0875 65.7714 65.3891L56.5727 67.6511C55.8187 67.8019 54.914 67.6511 54.3108 67.0479C53.7076 66.4447 53.5568 65.5399 53.7076 64.6351L55.9695 55.5872C56.1203 54.8332 56.5727 53.9284 57.1759 53.3252Z" fill="#0984BA"/>
</svg>
