<svg width="79" height="79" viewBox="0 0 79 79" fill="none" xmlns="http://www.w3.org/2000/svg">
<path d="M56.1201 4.30741C59.4377 0.989843 64.7156 0.989843 68.0332 4.30741L74.9699 11.2441C78.2875 14.5617 78.2875 19.8397 74.9699 23.1572L64.2632 33.8639L62.7552 35.3719L56.5725 57.9917C55.8185 60.5553 53.8581 62.8173 51.2945 63.722L11.4837 77.5955C8.61855 78.6511 5.45178 77.8971 3.49139 75.7859C1.38021 73.8256 0.626221 70.6588 1.68181 67.7936L15.5553 27.9828C16.4601 25.4192 18.722 23.4588 21.2856 22.7048L43.9054 16.5221L45.4134 15.0141L56.1201 4.30741ZM45.2626 23.6096L23.246 29.6416C22.9444 29.7924 22.492 30.094 22.492 30.3956L9.97573 65.8332L25.3572 50.4518C24.9048 49.547 24.754 48.4914 24.754 47.285C24.754 43.3642 27.9208 40.0467 31.9923 40.0467C35.9131 40.0467 39.2307 43.3642 39.2307 47.285C39.2307 51.3566 35.9131 54.5233 31.9923 54.5233C30.7859 54.5233 29.7303 54.3725 28.8256 53.9201L13.4441 69.3016L48.8818 56.7853C49.1834 56.6345 49.485 56.3329 49.6358 56.0313L55.6677 34.0147L45.2626 23.6096Z" fill="#0984BA"/>
</svg>
