<svg width="74" height="78" viewBox="0 0 74 78" fill="none" xmlns="http://www.w3.org/2000/svg">
<path d="M9.63464 19.5937C8.72985 20.0461 8.27745 20.8 8.27745 21.554C8.27745 35.4275 14.0078 59.1029 36.326 69.8096C36.7784 70.1112 37.5324 70.1112 37.9848 69.8096C60.303 59.2537 66.0333 35.4275 66.1841 21.554C66.1841 20.8 65.5809 20.0461 64.8269 19.5937L37.2308 7.98217L9.63464 19.5937ZM67.5413 12.9585C70.8589 14.4665 73.4224 17.6333 73.4224 21.554C73.2716 36.6339 67.0889 63.9284 41.1515 76.4447C38.588 77.6511 35.7228 77.6511 33.1592 76.4447C7.22186 63.9284 1.03912 36.6339 1.03912 21.554C0.888321 17.6333 3.4519 14.4665 6.76947 12.9585L35.1196 0.894635C35.7228 0.593037 36.4768 0.442239 37.2308 0.442239C37.834 0.442239 38.588 0.593037 39.1912 0.894635L67.5413 12.9585ZM54.271 31.9591L34.9688 51.2614C33.4608 52.7693 31.1988 52.7693 29.8416 51.2614L20.1905 41.6102C18.6826 40.2531 18.6826 37.9911 20.1905 36.6339C21.5477 35.1259 23.8097 35.1259 25.3177 36.6339L32.4052 43.7214L49.1439 26.9828C50.5011 25.4748 52.763 25.4748 54.271 26.9828C55.6282 28.34 55.6282 30.602 54.271 31.9591Z" fill="#0984BA"/>
</svg>
