<svg width="78" height="69" viewBox="0 0 78 69" fill="none" xmlns="http://www.w3.org/2000/svg">
<path d="M49.3342 1.72019C55.2153 3.37897 58.5329 9.41092 56.8741 15.1413L55.9693 18.1572C55.5169 19.816 54.9137 21.4748 54.1597 22.9828H68.184C73.4619 22.9828 77.8351 27.3559 77.8351 32.6339C77.8351 35.3483 76.6287 37.761 74.9699 39.5706C75.2715 40.4754 75.4223 41.3802 75.4223 42.4358C75.4223 45.4518 73.9143 48.3169 71.5016 50.1265C71.6523 50.7297 71.8031 51.3329 71.8031 52.0869C71.8031 55.1029 70.2952 57.8173 68.184 59.6268C67.8824 64.754 63.66 68.9764 58.5329 68.9764H43.7546C40.437 68.9764 37.1195 67.9208 34.4051 66.1112L25.0556 59.9284C23.3968 58.722 22.9444 56.4601 24.1508 54.8013C25.2064 53.1425 27.4684 52.6901 29.1272 53.8965L38.4767 60.0792C39.9846 61.1348 41.7942 61.5872 43.7546 61.5872H58.5329C59.7393 61.5872 60.9457 60.5316 60.9457 59.1744C60.9457 59.0236 60.7949 58.722 60.7949 58.5713C60.3425 56.7617 61.2472 54.9521 62.906 54.1981C63.8108 53.8965 64.5648 52.9917 64.5648 51.9361C64.5648 51.4837 64.2632 50.8805 63.9616 50.5789C63.2076 49.5233 63.0568 48.1661 63.5092 46.9598C63.8108 45.7534 64.8664 44.9994 66.2236 44.6978C67.2792 44.547 68.184 43.4914 68.184 42.285C68.184 41.6818 67.8824 41.2294 67.5808 40.777C66.676 39.8722 66.3744 38.6658 66.676 37.4595C66.9776 36.2531 67.8824 35.3483 68.938 34.8959C69.8428 34.5943 70.5968 33.6895 70.5968 32.6339C70.5968 31.4275 69.3904 30.2211 68.184 30.2211H47.977C46.6198 30.2211 45.4134 29.4671 44.8102 28.2607C44.207 27.0543 44.207 25.6972 44.961 24.6416C46.7706 22.078 48.1278 19.2128 49.0326 16.1969L49.9374 13.1809C50.3898 11.2205 49.3342 9.26012 47.3738 8.65692C45.4134 8.20453 43.453 9.26012 42.8498 11.2205L42.0958 14.2365C41.191 17.2524 39.6831 19.9668 37.5719 22.3796L29.7303 30.8243C28.3732 32.3323 26.1112 32.4831 24.6032 31.1259C23.246 29.7687 23.0952 27.5067 24.4524 25.9988L32.1431 17.554C33.5003 16.0461 34.5559 14.2365 35.1591 12.2761L35.9131 9.26012C37.5719 3.37897 43.6038 0.0614046 49.3342 1.72019ZM5.45178 25.3956H15.1029C17.6665 25.3956 19.9284 27.6575 19.9284 30.2211V64C19.9284 66.7144 17.6665 68.8256 15.1029 68.8256H5.45178C2.7374 68.8256 0.626221 66.7144 0.626221 64V30.2211C0.626221 27.6575 2.7374 25.3956 5.45178 25.3956Z" fill="#0984BA"/>
</svg>
