<svg width="97" height="78" viewBox="0 0 97 78" fill="none" xmlns="http://www.w3.org/2000/svg">
<path d="M15.2538 3.00581C15.857 1.04543 17.8174 0.140642 19.7778 0.743836L38.326 6.62498C40.4372 3.00581 44.3579 0.442239 48.8819 0.442239C55.517 0.442239 60.9458 5.87099 60.9458 12.5061C60.9458 12.9585 60.795 13.4109 60.795 13.8633L80.0972 20.0461C82.0576 20.6492 83.1132 22.6096 82.3592 24.57C81.756 26.3796 79.7956 27.4352 77.8352 26.832L57.9298 20.4984C56.4218 22.1572 54.6122 23.3636 52.5011 24.1176V74.0319C52.5011 76.1431 50.8423 77.6511 48.8819 77.6511H18.7222C16.611 77.6511 15.103 76.1431 15.103 74.0319C15.103 72.0716 16.611 70.4128 18.7222 70.4128H45.2627V24.1176C40.588 22.6096 37.2704 18.6889 36.818 13.7125L17.5158 7.52977C15.7062 6.92658 14.6506 4.9662 15.2538 3.00581ZM19.9286 25.1732L8.92026 43.8722H30.7861L19.9286 25.1732ZM38.9292 46.5866C37.2704 53.2217 29.2781 58.3489 19.9286 58.3489C10.4283 58.3489 2.43593 53.2217 0.92794 46.5866C0.475544 44.9278 1.07874 43.1182 1.83273 41.761L16.1586 17.0301C16.9126 15.8237 18.4206 14.9189 19.9286 14.9189C21.2857 14.9189 22.7937 15.8237 23.5477 17.0301L37.8736 41.6102C38.7784 43.1182 39.2308 44.9278 38.9292 46.5866ZM88.5419 63.1744L77.5336 44.4754L66.6761 63.1744H88.5419ZM77.5336 77.6511C68.1841 77.6511 60.1918 72.524 58.533 65.8888C58.2314 64.23 58.6838 62.4205 59.5886 61.0633L73.9144 36.3323C74.6684 35.1259 76.0256 34.2211 77.5336 34.2211C79.0416 34.2211 80.3988 35.1259 81.1528 36.3323L95.6294 60.9125C96.3834 62.4205 96.9866 64.23 96.5342 65.8888C95.0263 72.524 87.0339 77.6511 77.5336 77.6511ZM48.8819 7.68057C46.1675 7.68057 44.0563 9.94255 44.0563 12.5061C44.0563 15.2205 46.1675 17.3317 48.8819 17.3317C51.4455 17.3317 53.7074 15.2205 53.7074 12.5061C53.7074 9.94255 51.4455 7.68057 48.8819 7.68057Z" fill="#0984BA"/>
</svg>
