<svg width="78" height="82" viewBox="0 0 78 82" fill="none" xmlns="http://www.w3.org/2000/svg">
<path d="M70.5968 41.0467C70.5968 29.8876 64.5648 19.6333 54.9137 13.9029C45.1118 8.32338 33.1987 8.32338 23.5476 13.9029C13.7457 19.6333 7.86455 29.8876 7.86455 41.0467C7.86455 52.3566 13.7457 62.6109 23.5476 68.3412C33.1987 73.9208 45.1118 73.9208 54.9137 68.3412C64.5648 62.6109 70.5968 52.3566 70.5968 41.0467ZM0.626221 41.0467C0.626221 27.324 7.86455 14.6569 19.9284 7.72019C31.8415 0.783454 46.469 0.783454 58.5329 7.72019C70.446 14.6569 77.8351 27.324 77.8351 41.0467C77.8351 54.9201 70.446 67.5872 58.5329 74.524C46.469 81.4607 31.8415 81.4607 19.9284 74.524C7.86455 67.5872 0.626221 54.9201 0.626221 41.0467ZM51.1437 29.1336C44.5086 22.6492 33.8019 22.6492 27.1668 29.1336C25.8096 30.6416 23.5476 30.6416 22.1904 29.1336C20.6824 27.7764 20.6824 25.5144 22.1904 24.1572C31.5399 14.6569 46.7706 14.6569 56.1201 24.1572C65.6204 33.5067 65.6204 48.7374 56.1201 58.0869C54.7629 59.5949 52.5009 59.5949 51.1437 58.0869C49.6358 56.7297 49.6358 54.4677 51.1437 53.1106C57.6281 46.4754 57.6281 35.7687 51.1437 29.1336ZM32.5955 34.5623C33.5003 33.6575 35.1591 33.6575 36.0639 34.5623L45.715 44.2134C46.6198 45.1182 46.6198 46.777 45.715 47.6818C44.8102 48.5866 43.1514 48.5866 42.2466 47.6818L32.5955 38.0307C31.6907 37.1259 31.6907 35.4671 32.5955 34.5623ZM20.5316 36.9751C21.4364 36.0703 23.0952 36.0703 24 36.9751L43.3022 56.2773C44.207 57.1821 44.207 58.8409 43.3022 59.7457C42.3974 60.6505 40.7386 60.6505 39.8338 59.7457L20.5316 40.4435C19.6268 39.5387 19.6268 37.8799 20.5316 36.9751ZM18.1189 52.5074C17.2141 51.6026 17.2141 49.9438 18.1189 49.039C19.0236 48.1342 20.6824 48.1342 21.5872 49.039L31.2383 58.6901C32.1431 59.5949 32.1431 61.2537 31.2383 62.1585C30.3335 63.0633 28.6748 63.0633 27.77 62.1585L18.1189 52.5074Z" fill="#0984BA"/>
</svg>
